<?xml version="1.0" encoding="UTF-8" standalone="no"?>
<!-- Created with Inkscape (http://www.inkscape.org/) -->

<svg
   width="157.50674mm"
   height="53.264748mm"
   viewBox="0 0 157.50674 53.264748"
   version="1.1"
   id="svg1"
   sodipodi:docname="logo_KVA.svg"
   inkscape:version="1.4.2 (f4327f4, 2025-05-13)"
   xmlns:inkscape="http://www.inkscape.org/namespaces/inkscape"
   xmlns:sodipodi="http://sodipodi.sourceforge.net/DTD/sodipodi-0.dtd"
   xmlns="http://www.w3.org/2000/svg"
   xmlns:svg="http://www.w3.org/2000/svg">
  <sodipodi:namedview
     id="namedview1"
     pagecolor="#ffffff"
     bordercolor="#000000"
     borderopacity="0.25"
     inkscape:showpageshadow="2"
     inkscape:pageopacity="0.0"
     inkscape:pagecheckerboard="0"
     inkscape:deskcolor="#d1d1d1"
     inkscape:document-units="mm"
     inkscape:zoom="1.4916822"
     inkscape:cx="297.31535"
     inkscape:cy="215.52849"
     inkscape:window-width="1772"
     inkscape:window-height="993"
     inkscape:window-x="201"
     inkscape:window-y="70"
     inkscape:window-maximized="0"
     inkscape:current-layer="layer1" />
  <defs
     id="defs1">
    <linearGradient
       id="swatch9">
      <stop
         style="stop-color:#000000;stop-opacity:1;"
         offset="0"
         id="stop9" />
    </linearGradient>
    <linearGradient
       id="swatch3">
      <stop
         style="stop-color:#000000;stop-opacity:1;"
         offset="0"
         id="stop3" />
    </linearGradient>
  </defs>
  <g
     id="layer1"
     transform="translate(-26.446904,-125.95694)">
    <g
       id="g110"
       transform="matrix(0.91198135,0,0,0.83326786,3.8176279,28.917709)">
      <g
         id="g108"
         transform="matrix(0.73979555,0,0,0.84183757,19.676935,17.797661)"
         style="opacity:1">
        <path
           d="m 68.68281,117.19435 a 19.187988,19.187988 0 0 0 -0.08992,0 19.187988,19.187988 0 0 0 -14.083895,6.15621 37.376602,37.776352 0 0 1 9.797852,2.63395 19.187988,19.187988 0 0 0 4.37596,-8.79016 z"
           style="opacity:0.594;fill:#00ff00;stroke-width:0;stroke-linecap:round;stroke-linejoin:round"
           id="path56" />
        <path
           d="m 78.146315,136.1105 a 37.376602,37.776352 0 0 1 1.437638,1.78542 19.187988,19.187988 0 0 1 0.132809,-0.1142 18.973452,18.973452 0 0 0 -1.570447,-1.67122 z"
           style="opacity:0.594;fill:#00ff00;stroke-width:0;stroke-linecap:round;stroke-linejoin:round"
           id="path98" />
        <path
           d="m 17.094744,142.71424 a 37.376602,37.776352 0 0 1 4.537708,-6.60374 18.973452,18.973452 0 0 0 -4.537708,6.60374 z"
           style="opacity:0.594;fill:#00ff00;stroke-width:0;stroke-linecap:round;stroke-linejoin:round"
           id="path94" />
        <path
           d="m 43.500884,190.85807 a 19.187988,19.187988 0 0 0 -3.256648,1.50585 15.390366,15.390366 0 0 0 3.256648,-1.50585 z"
           style="opacity:0.594;fill:#00ff00;stroke-width:0;stroke-linecap:round;stroke-linejoin:round"
           id="path91" />
        <path
           d="m 59.534531,192.36392 a 19.187988,19.187988 0 0 0 -3.256649,-1.50585 15.390366,15.390366 0 0 0 3.256649,1.50585 z"
           style="opacity:0.594;fill:#00ff00;stroke-width:0;stroke-linecap:round;stroke-linejoin:round"
           id="path89" />
        <path
           d="m 56.277882,190.85807 a 15.390366,15.390366 0 0 1 -6.388757,-7.84139 15.390366,15.390366 0 0 1 -6.388241,7.84139 19.187988,19.187988 0 0 1 6.388241,-1.09451 19.187988,19.187988 0 0 1 6.388757,1.09451 z"
           style="opacity:0.594;fill:#00ff00;stroke-width:0;stroke-linecap:round;stroke-linejoin:round"
           id="path90" />
        <path
           d="m 49.889642,172.45661 a 15.390366,15.390366 0 0 0 -0.959632,5.27978 15.390366,15.390366 0 0 0 0.959115,5.28029 15.390366,15.390366 0 0 0 0.959115,-5.28029 15.390366,15.390366 0 0 0 -0.958598,-5.27978 z"
           style="opacity:0.594;fill:#00ff00;stroke-width:0;stroke-linecap:round;stroke-linejoin:round"
           id="path97" />
        <path
           d="m 54.672296,165.7459 a 18.973452,18.973452 0 0 0 10.457242,3.14245 18.973452,18.973452 0 0 0 9.52035,-2.56109 15.390366,15.390366 0 0 0 -10.329086,-3.98115 15.390366,15.390366 0 0 0 -9.648506,3.39979 z"
           style="opacity:0.594;fill:#00ff00;stroke-width:0;stroke-linecap:round;stroke-linejoin:round"
           id="path86" />
        <path
           d="m 49.889125,161.21491 a 18.973452,18.973452 0 0 1 -4.349605,4.23592 11.692681,11.692681 0 0 1 -0.248047,0.447 15.390366,15.390366 0 0 1 4.598169,6.55878 15.390366,15.390366 0 0 1 4.782654,-6.71071 18.973452,18.973452 0 0 1 -4.783171,-4.53099 z"
           style="opacity:0.594;fill:#00ff00;stroke-width:0;stroke-linecap:round;stroke-linejoin:round"
           id="path85" />
        <path
           d="m 25.128879,166.32726 a 18.973452,18.973452 0 0 0 0.383956,0.21653 11.692681,11.692681 0 0 1 -0.230477,-0.35399 15.390366,15.390366 0 0 0 -0.153479,0.13746 z"
           style="opacity:0.594;fill:#00ff00;stroke-width:0;stroke-linecap:round;stroke-linejoin:round"
           id="path95" />
        <path
           d="m 24.779547,188.81943 a 15.390366,15.390366 0 0 1 -4.711857,-11.08304 15.390366,15.390366 0 0 1 5.061189,-11.40913 18.973452,18.973452 0 0 1 -9.453169,-16.41243 18.973452,18.973452 0 0 1 1.419034,-7.20059 37.376602,37.776352 0 0 0 -4.582149,18.12344 37.376602,37.776352 0 0 0 12.266952,27.98175 z"
           style="opacity:0.594;fill:#00ff00;stroke-width:0;stroke-linecap:round;stroke-linejoin:round"
           id="path93" />
        <path
           d="m 43.500884,190.85807 a 15.390366,15.390366 0 0 0 6.388241,-7.84139 15.390366,15.390366 0 0 1 -0.959115,-5.28029 15.390366,15.390366 0 0 1 0.959632,-5.27978 15.390366,15.390366 0 0 0 -4.598169,-6.55878 11.692681,11.692681 0 0 1 -10.092924,5.7888 11.692681,11.692681 0 0 1 -9.685714,-5.14284 18.973452,18.973452 0 0 1 -0.383956,-0.21653 15.390366,15.390366 0 0 0 -5.061189,11.40913 15.390366,15.390366 0 0 0 4.711857,11.08304 37.376602,37.776352 0 0 0 0.972033,0.86041 15.390366,15.390366 0 0 0 9.706385,3.44682 15.390366,15.390366 0 0 0 4.786271,-0.76274 19.187988,19.187988 0 0 1 3.256648,-1.50585 z"
           style="opacity:0.594;fill:#00ff00;stroke-width:0;stroke-linecap:round;stroke-linejoin:round"
           id="path92" />
        <path
           d="m 54.672296,165.7459 a 15.390366,15.390366 0 0 0 -4.782654,6.71071 15.390366,15.390366 0 0 1 0.958598,5.27978 15.390366,15.390366 0 0 1 -0.959115,5.28029 15.390366,15.390366 0 0 0 6.388757,7.84139 19.187988,19.187988 0 0 1 3.256649,1.50585 15.390366,15.390366 0 0 0 4.786271,0.76274 15.390366,15.390366 0 0 0 9.706385,-3.44682 37.376602,37.776352 0 0 0 0.972033,-0.86041 15.390366,15.390366 0 0 0 4.711857,-11.08304 15.390366,15.390366 0 0 0 -5.061189,-11.40913 18.973452,18.973452 0 0 1 -9.52035,2.56109 18.973452,18.973452 0 0 1 -10.457242,-3.14245 z"
           style="opacity:0.594;fill:#00ff00;stroke-width:0;stroke-linecap:round;stroke-linejoin:round"
           id="path87" />
        <path
           d="m 74.649888,166.32726 a 15.390366,15.390366 0 0 1 5.061189,11.40913 15.390366,15.390366 0 0 1 -4.711857,11.08304 37.376602,37.776352 0 0 0 11.012248,-18.27692 19.187988,19.187988 0 0 1 -8.720398,-6.06423 18.973452,18.973452 0 0 1 -2.641182,1.84898 z"
           style="opacity:0.594;fill:#00ff00;stroke-width:0;stroke-linecap:round;stroke-linejoin:round"
           id="path88" />
        <path
           d="m 53.553501,148.29839 a 18.973452,18.973452 0 0 1 0.06873,1.61644 18.973452,18.973452 0 0 1 -3.733106,11.30008 18.973452,18.973452 0 0 0 4.783171,4.53099 15.390366,15.390366 0 0 1 9.648506,-3.39979 15.390366,15.390366 0 0 1 10.329086,3.98115 18.973452,18.973452 0 0 0 2.641182,-1.84898 19.187988,19.187988 0 0 1 -4.118095,-9.46247 19.187988,19.187988 0 0 1 -4.580082,0.55449 19.187988,19.187988 0 0 1 -15.039392,-7.27191 z"
           style="opacity:0.594;fill:#00ff00;stroke-width:0;stroke-linecap:round;stroke-linejoin:round"
           id="path83" />
        <path
           d="m 49.889125,138.61474 a 18.973452,18.973452 0 0 1 3.664376,9.68365 19.187988,19.187988 0 0 0 15.039392,7.27191 19.187988,19.187988 0 0 0 4.580082,-0.55449 19.187988,19.187988 0 0 1 -0.182934,-2.64325 19.187988,19.187988 0 0 1 6.593912,-14.47664 37.376602,37.776352 0 0 0 -1.437638,-1.78542 18.973452,18.973452 0 0 0 -13.016777,-5.16919 18.973452,18.973452 0 0 0 -15.240413,7.67343 z"
           style="opacity:0.594;fill:#00ff00;stroke-width:0;stroke-linecap:round;stroke-linejoin:round"
           id="path81" />
        <path
           d="m 53.553501,148.29839 a 19.187988,19.187988 0 0 1 -3.965133,-9.26765 18.973452,18.973452 0 0 0 -3.431832,10.88409 18.973452,18.973452 0 0 0 3.732589,11.30008 18.973452,18.973452 0 0 0 3.733106,-11.30008 18.973452,18.973452 0 0 0 -0.06873,-1.61644 z"
           style="opacity:0.594;fill:#00ff00;stroke-width:0;stroke-linecap:round;stroke-linejoin:round"
           id="path84" />
        <path
           d="m 49.889125,138.61474 a 18.973452,18.973452 0 0 0 -0.300757,0.416 19.187988,19.187988 0 0 0 3.965133,9.26765 18.973452,18.973452 0 0 0 -3.664376,-9.68365 z"
           style="opacity:0.594;fill:#00ff00;stroke-width:0;stroke-linecap:round;stroke-linejoin:round"
           id="path82" />
        <path
           d="m 34.648712,130.94131 a 18.973452,18.973452 0 0 0 -13.01626,5.16919 37.376602,37.776352 0 0 0 -4.537708,6.60374 18.973452,18.973452 0 0 0 -1.419034,7.20059 18.973452,18.973452 0 0 0 9.453169,16.41243 15.390366,15.390366 0 0 1 0.153479,-0.13746 11.692681,11.692681 0 0 1 -1.776635,-6.196 11.692681,11.692681 0 0 1 11.692826,-11.69231 11.692681,11.692681 0 0 1 11.692826,11.69231 11.692681,11.692681 0 0 1 -1.351855,5.45703 18.973452,18.973452 0 0 0 4.349605,-4.23592 18.973452,18.973452 0 0 1 -3.732589,-11.30008 18.973452,18.973452 0 0 1 3.431832,-10.88409 19.187988,19.187988 0 0 1 -0.108004,-0.94878 18.973452,18.973452 0 0 0 -14.831652,-7.14065 z"
           style="opacity:0.594;fill:#00ff00;stroke-width:0;stroke-linecap:round;stroke-linejoin:round"
           id="path79" />
        <path
           d="m 49.480364,138.08196 a 19.187988,19.187988 0 0 0 0.108004,0.94878 18.973452,18.973452 0 0 1 0.300757,-0.416 18.973452,18.973452 0 0 0 -0.408761,-0.53278 z"
           style="opacity:0.594;fill:#00ff00;stroke-width:0;stroke-linecap:round;stroke-linejoin:round"
           id="path80" />
        <path
           d="m 54.508998,123.35056 a 19.187988,19.187988 0 0 0 -4.709273,9.16016 19.187988,19.187988 0 0 0 0.0894,5.2e-4 19.187988,19.187988 0 0 0 14.417725,-6.52673 37.376602,37.776352 0 0 0 -9.797852,-2.63395 z"
           style="opacity:0.594;fill:#00ff00;stroke-width:0;stroke-linecap:round;stroke-linejoin:round"
           id="path78" />
        <path
           d="m 45.106471,165.7459 a 15.390366,15.390366 0 0 1 0.185002,0.15193 11.692681,11.692681 0 0 0 0.248047,-0.447 18.973452,18.973452 0 0 1 -0.433049,0.29507 z"
           style="opacity:0.594;fill:#00ff00;stroke-width:0;stroke-linecap:round;stroke-linejoin:round"
           id="path96" />
        <path
           d="m 46.948219,159.35611 a 8.4058943,8.4058943 0 0 0 -6.325195,-2.86959 8.4058943,8.4058943 0 0 0 -8.405688,8.40569 8.4058943,8.4058943 0 0 0 3.305741,6.68228 11.73063,11.73063 0 0 0 11.435478,-11.72693 11.73063,11.73063 0 0 0 -0.01034,-0.49145 z"
           style="fill:#ff3ab8;stroke-width:0.31806"
           id="path104" />
        <circle
           style="fill:#ffff00;fill-opacity:1;stroke-width:0.31806"
           id="circle103-8-8"
           cx="29.864777"
           cy="160.91916"
           r="8.4058943" />
        <circle
           style="fill:#009cff;fill-opacity:1;stroke-width:0.31806"
           id="circle103-8-86"
           cx="22.415501"
           cy="152.8817"
           r="8.4058943" />
        <circle
           style="fill:#ff7000;fill-opacity:1;stroke-width:0.403623"
           id="circle103-8-0"
           cx="17.610186"
           cy="140.16838"
           r="10.66722" />
        <ellipse
           style="fill:#ffffff;fill-opacity:1;stroke-width:0.0816087"
           id="circle103-4"
           cx="10.90937"
           cy="138.04832"
           rx="1.1979167"
           ry="3.0773246" />
        <ellipse
           style="fill:#ffffff;fill-opacity:1;stroke-width:0.0816087"
           id="ellipse105"
           cx="16.127434"
           cy="137.14995"
           rx="1.1979167"
           ry="3.3291738" />
      </g>
      <text
         xml:space="preserve"
         style="font-size:22.2516px;text-align:start;writing-mode:lr-tb;direction:ltr;text-anchor:start;opacity:1;mix-blend-mode:color-burn;fill:#ff7000;fill-opacity:1;stroke:none;stroke-width:0;stroke-linecap:round;stroke-linejoin:round;stroke-dasharray:none;stroke-dashoffset:0;stroke-opacity:1;paint-order:normal"
         x="86.263603"
         y="148.51828"
         id="text105"><tspan
           id="tspan105"
           style="font-style:normal;font-variant:normal;font-weight:bold;font-stretch:normal;font-size:28.6091px;font-family:'BIZ UDPGothic';-inkscape-font-specification:'BIZ UDPGothic Bold';fill:#ff7000;fill-opacity:1;stroke-width:0"
           x="86.263603"
           y="148.51828" /><tspan
           style="font-style:normal;font-variant:normal;font-weight:bold;font-stretch:normal;font-family:'Noto Sans JP';-inkscape-font-specification:'Noto Sans JP Bold';fill:#ff7000;fill-opacity:1;fill-rule:nonzero;stroke-width:0"
           x="86.263603"
           y="178.39484"
           id="tspan106">ほいくえん </tspan><tspan
           style="font-style:normal;font-variant:normal;font-weight:bold;font-stretch:normal;font-family:'BIZ UDPGothic';-inkscape-font-specification:'BIZ UDPGothic Bold';fill:#ff7000;fill-opacity:1;stroke-width:0"
           x="86.263603"
           y="206.20934"
           id="tspan107" /></text>
      <text
         xml:space="preserve"
         style="font-style:normal;font-variant:normal;font-weight:normal;font-stretch:normal;font-size:42.1409px;font-family:HGPGothicM;-inkscape-font-specification:HGPGothicM;text-align:start;writing-mode:lr-tb;direction:ltr;text-anchor:start;opacity:1;fill:#ff7000;fill-opacity:1;fill-rule:nonzero;stroke:none;stroke-width:0;stroke-linecap:round;stroke-linejoin:round;stroke-dasharray:none;stroke-dashoffset:0;stroke-opacity:1;paint-order:normal"
         x="87.012764"
         y="158.85815"
         id="text108"><tspan
           id="tspan108"
           style="font-style:normal;font-variant:normal;font-weight:normal;font-stretch:normal;font-size:42.1409px;font-family:'ROG Fonts';-inkscape-font-specification:'ROG Fonts';fill:#ff7000;fill-opacity:1;stroke-width:0"
           x="87.012764"
           y="158.85815">KVA</tspan></text>
      <path
         style="opacity:1;fill:none;fill-opacity:1;fill-rule:nonzero;stroke:#ffffff;stroke-width:1.03242;stroke-linecap:round;stroke-linejoin:round;stroke-dasharray:none;stroke-dashoffset:0;stroke-opacity:1;paint-order:normal"
         d="m 30.02869,139.6516 c 0,0 1.346061,0.74651 2.762338,0.0527 2.192489,-1.07403 2.074273,-3.52165 1.87768,-4.07494"
         id="path110" />
    </g>
  </g>
</svg>
